<svg xmlns="http://www.w3.org/2000/svg" aria-hidden="true" style="position:absolute;width:0;height:0;overflow:hidden">
  <defs>
    <symbol id="icon-facebook" viewBox="0 0 32 32">
      <path d="M30.234 0H1.767C.791 0 .001.79.001 1.766v28.469c0 .974.79 1.765 1.766 1.765h15.328V19.608h-4.173v-4.829h4.17v-3.563c0-4.133 2.525-6.384 6.213-6.384 1.766 0 3.283.131 3.726.19v4.32h-2.557c-2.006 0-2.394.955-2.394 2.352v3.085h4.782l-.624 4.829h-4.16V32h8.157c.973 0 1.763-.79 1.763-1.766V1.767A1.763 1.763 0 0 0 30.233.001z"/>
    </symbol>
    <symbol id="icon-instagram" viewBox="0 0 32 32">
      <path d="M16 2.883c4.272 0 4.779.016 6.467.094 4.336.197 6.36 2.254 6.558 6.558.077 1.686.091 2.192.091 6.464 0 4.275-.016 4.781-.091 6.467-.198 4.299-2.219 6.36-6.56 6.558-1.686.077-2.192.093-6.466.093-4.272 0-4.779-.016-6.464-.093-4.347-.198-6.363-2.266-6.56-6.56-.077-1.686-.093-2.192-.093-6.466 0-4.272.016-4.778.093-6.464.198-4.304 2.219-6.363 6.56-6.56 1.686-.077 2.192-.093 6.464-.093zM16 0c-4.346 0-4.89.019-6.597.096C3.593.363.363 3.587.097 9.403.015 11.11-.001 11.654-.001 16s.019 4.891.096 6.597c.267 5.811 3.491 9.04 9.307 9.307 1.707.077 2.251.096 6.597.096s4.891-.019 6.597-.096c5.806-.267 9.043-3.491 9.306-9.307.08-1.706.098-2.251.098-6.597s-.019-4.89-.096-6.595c-.261-5.806-3.488-9.04-9.306-9.309C20.891.016 20.345 0 16 0zm0 7.784c-4.538 0-8.216 3.678-8.216 8.216s3.678 8.216 8.216 8.216c4.538 0 8.216-3.678 8.216-8.216S20.538 7.784 16 7.784zm0 13.549a5.333 5.333 0 0 1 0-10.666 5.333 5.333 0 0 1 0 10.666zm8.541-15.792a1.92 1.92 0 0 0 0 3.84 1.92 1.92 0 0 0 0-3.84z"/>
    </symbol>
    <symbol id="icon-twitter" viewBox="0 0 38 32">
      <path d="M37.647 4.088a15.016 15.016 0 0 1-4.362 1.209l-.074.007a7.777 7.777 0 0 0 3.382-4.218l.016-.055a15.187 15.187 0 0 1-4.806 1.858l-.099.017a7.693 7.693 0 0 0-5.627-2.44h-.011.001c-4.988 0-8.651 4.653-7.526 9.481A21.911 21.911 0 0 1 2.653 1.92l-.031-.039a7.645 7.645 0 0 0-1.045 3.882 7.727 7.727 0 0 0 3.408 6.412l.027.017a7.67 7.67 0 0 1-3.536-.986l.038.02c-.085 3.576 2.481 6.925 6.195 7.671a7.553 7.553 0 0 1-2.029.271 7.72 7.72 0 0 1-1.508-.147l.049.008c1.016 3.093 3.85 5.298 7.208 5.363h.008a15.431 15.431 0 0 1-9.583 3.309c-.653 0-1.297-.04-1.928-.119l.076.008c3.341 2.175 7.428 3.469 11.818 3.469h.023-.001c14.34 0 22.443-12.111 21.954-22.974a15.875 15.875 0 0 0 3.818-3.943l.035-.056z"/>
    </symbol>
    <symbol id="logo" viewBox="0 0 119 32">
      <path d="m12.958 30.769 5.002-13.785 4.962 13.785h5.12l7.444-21.504h-6.144L25.167 21.75 20.52 9.265H15.4L10.713 21.75 6.538 9.265H.433l7.404 21.504h5.12zm34.86.473c2.127 0 4.057-.486 5.79-1.457a11.333 11.333 0 0 0 4.127-3.949l.028-.049c1.036-1.694 1.556-3.617 1.556-5.77 0-2.178-.519-4.11-1.556-5.79a11.385 11.385 0 0 0-4.098-3.949l-.057-.029c-1.733-.972-3.663-1.457-5.79-1.457s-4.064.486-5.809 1.457a11.342 11.342 0 0 0-4.147 3.93l-.028.048c-1.038 1.68-1.556 3.61-1.556 5.79 0 2.154.517 4.076 1.556 5.77a11.278 11.278 0 0 0 4.118 3.968l.057.029c1.745.972 3.682 1.457 5.809 1.457zm0-5.317c-1.602 0-2.908-.551-3.919-1.654-1.012-1.103-1.516-2.521-1.516-4.254 0-1.707.505-3.118 1.516-4.234 1.009-1.116 2.316-1.674 3.919-1.674 1.6 0 2.901.558 3.899 1.674.997 1.116 1.497 2.527 1.497 4.234 0 1.733-.5 3.151-1.497 4.254-.998 1.103-2.298 1.654-3.899 1.654zm20.326 4.844V19.19c0-1.601.447-2.843 1.339-3.722.892-.88 2.062-1.319 3.505-1.319h1.851v-5.12h-1.26c-1.313 0-2.474.242-3.486.729-1.01.486-1.792 1.398-2.343 2.737v-3.23h-5.514v21.504h5.908zm14.656 0v-6.577l2.363-2.599 5.474 9.177h6.695l-7.759-12.839 7.798-8.665h-7.286l-7.286 7.759V.956h-5.908V30.77h5.908zM102.89 5.76V1.428h-2.363V5.76h2.363zm0 25.009V9.856h-2.363v20.913h2.363zm13.553.237c.209 0 .498-.012.866-.039a5.14 5.14 0 0 0 .985-.158v-2.166c-.436.062-.954.104-1.479.118h-.018c-.945 0-1.668-.171-2.166-.512a2.488 2.488 0 0 1-1-1.322l-.005-.018a5.589 5.589 0 0 1-.256-1.688V12.101h4.569V9.856h-4.569V4.972h-2.363v2.245c0 .814-.217 1.457-.65 1.93s-1.031.709-1.792.709h-1.497v2.245h3.938v13.115c0 1.89.465 3.328 1.398 4.313.932.985 2.277 1.477 4.037 1.477z"/>
    </symbol>
  </defs>
</svg>